<svg xmlns="http://www.w3.org/2000/svg" viewBox="0 0 64 64" role="img" aria-label="DormLock">
  <defs>
    <linearGradient id="yellow" x1="10" y1="8" x2="54" y2="56" gradientUnits="userSpaceOnUse">
      <stop stop-color="#fff2a0"/>
      <stop offset="1" stop-color="#f7df63"/>
    </linearGradient>
  </defs>
  <rect width="64" height="64" rx="19.5" fill="url(#yellow)"/>
  <g transform="translate(8 8) scale(2)" fill="none" stroke="#111" stroke-width="2" stroke-linecap="round" stroke-linejoin="round">
    <path d="M2.586 17.414A2 2 0 0 0 2 18.828V21a1 1 0 0 0 1 1h3a1 1 0 0 0 1-1v-1a1 1 0 0 1 1-1h1a1 1 0 0 0 1-1v-1a1 1 0 0 1 1-1h.172a2 2 0 0 0 1.414-.586l.814-.814a6.5 6.5 0 1 0-4-4z"/>
    <circle cx="16.5" cy="7.5" r=".5" fill="#111" stroke="none"/>
  </g>
</svg>
